<svg width="0" height="0" class="hidden">
<symbol xmlns="http://www.w3.org/2000/svg"  viewBox="0 0 32 32" fill="none" id='profile'>
<path d="M16 2.41024C12.8665 2.41024 10.3175 5.06112 10.3175 8.32C10.3175 11.5789 12.8677 14.231 16 14.231C19.1323 14.231 21.6825 11.5802 21.6825 8.32C21.6825 5.06112 19.1323 2.41024 16 2.41024ZM16 16.64C11.5889 16.64 8 12.9075 8 8.32C8 3.73248 11.5889 0 16 0C20.4111 0 24 3.73248 24 8.32C24 12.9075 20.4111 16.64 16 16.64Z" fill="black"/>
<path d="M32 32H29.5385V30.1709C29.536 29.8253 29.3945 21.6371 20.9231 21.6371H11.0769C2.69292 21.6371 2.46769 29.8406 2.46154 30.1888V31.9987H0V30.1696C0.0603077 26.3629 2.45169 19.1987 11.0769 19.1987H20.9231C29.6849 19.1987 32 26.3757 32 30.1696V31.9987V32Z" fill="black"/>
</symbol>
<symbol xmlns="http://www.w3.org/2000/svg"  viewBox="0 0 32 32" fill="none" id="search">
<path d="M18.8774 20.2056L29.8674 32L31.9999 30.3883L21.01 18.594L18.8774 20.2056Z" fill="black"/>
<path d="M12.6799 2.79818C7.40131 2.79818 3.10796 6.87177 3.10796 11.8794C3.10796 16.887 7.40131 20.9606 12.6799 20.9606C17.9585 20.9606 22.2519 16.887 22.2519 11.8794C22.2519 6.87177 17.9585 2.79818 12.6799 2.79818ZM12.6799 23.7613C5.68735 23.7613 0 18.4317 0 11.8807C0 5.32968 5.68876 0 12.6799 0C19.6725 0 25.3612 5.32968 25.3612 11.8807C25.3612 18.4317 19.6725 23.7613 12.6799 23.7613Z" fill="black"/>
</symbol>
<symbol xmlns="http://www.w3.org/2000/svg" viewBox="0 0 32 32" fill="none" id='cart'>
<path d="M1.45896 7.62555L0 32H32L30.541 7.62555H1.45896ZM3.81867 10.1885H28.1825L29.3345 29.437H2.66548L3.81748 10.1885H3.81867Z" fill="black"/>
<path d="M21.5917 7.78886C21.5917 4.89439 19.3019 2.53982 16.4871 2.53982C13.6723 2.53982 11.3825 4.89439 11.3825 7.78886H8.9126C8.9126 3.49408 12.3105 0 16.4871 0C20.6637 0 24.0616 3.49408 24.0616 7.78886H21.5917Z" fill="black"/>
</symbol>
 <symbol xmlns="http://www.w3.org/2000/svg"  viewBox="0 0 50 50" fill='inherit' id="facebook">
 <path d="M32,11h5c0.552,0,1-0.448,1-1V3.263c0-0.524-0.403-0.96-0.925-0.997C35.484,2.153,32.376,2,30.141,2C24,2,20,5.68,20,12.368 V19h-7c-0.552,0-1,0.448-1,1v7c0,0.552,0.448,1,1,1h7v19c0,0.552,0.448,1,1,1h7c0.552,0,1-0.448,1-1V28h7.222 c0.51,0,0.938-0.383,0.994-0.89l0.778-7C38.06,19.518,37.596,19,37,19h-8v-5C29,12.343,30.343,11,32,11z"></path>
 </symbol>
 <symbol xmlns="http://www.w3.org/2000/svg"  viewBox="0 0 50 50" fill='inherit' id="pinterest">
<path d="M25,2C12.3178711,2,2,12.3178711,2,25c0,9.8841553,6.2675781,18.3302612,15.036377,21.5769653	c-0.2525635-2.2515869-0.2129517-5.9390259,0.2037964-7.7243652c0.3902588-1.677002,2.5212402-10.6871338,2.5212402-10.6871338	s-0.6433105-1.2883301-0.6433105-3.1911011c0-2.9901733,1.7324219-5.2211914,3.8898315-5.2211914	c1.8349609,0,2.7197876,1.3776245,2.7197876,3.0281982c0,1.8457031-1.1734619,4.6026611-1.78125,7.1578369	c-0.506897,2.1409302,1.0733643,3.8865356,3.1836548,3.8865356c3.821228,0,6.7584839-4.0296021,6.7584839-9.8453369	c0-5.147583-3.697998-8.7471924-8.9795532-8.7471924c-6.1167603,0-9.7072754,4.588562-9.7072754,9.3309937	c0,1.8473511,0.7111816,3.8286743,1.6000977,4.9069824c0.175293,0.2133179,0.2009277,0.3994141,0.1488647,0.6160278	c-0.1629028,0.678894-0.5250854,2.1392822-0.5970459,2.4385986c-0.0934448,0.3944702-0.3117676,0.4763184-0.7186279,0.2869263	c-2.685791-1.2503052-4.364502-5.1756592-4.364502-8.3295898c0-6.7815552,4.9268188-13.0108032,14.206543-13.0108032	c7.4588623,0,13.2547607,5.3138428,13.2547607,12.4179077c0,7.4100342-4.6729126,13.3729858-11.1568604,13.3729858	c-2.178894,0-4.2263794-1.132019-4.9267578-2.4691772c0,0-1.0783081,4.1048584-1.3404541,5.1112061	c-0.4524536,1.7404175-2.3892822,5.3460083-3.3615723,6.9837036C20.1704712,47.6074829,22.5397949,48,25,48	c12.6826172,0,23-10.3173828,23-23C48,12.3178711,37.6826172,2,25,2z"></path>
</symbol>
<symbol xmlns="http://www.w3.org/2000/svg" viewBox="0 0 24 24" fill='inherit' id='instagram'>
    <path d="M 8 3 C 5.243 3 3 5.243 3 8 L 3 16 C 3 18.757 5.243 21 8 21 L 16 21 C 18.757 21 21 18.757 21 16 L 21 8 C 21 5.243 18.757 3 16 3 L 8 3 z M 8 5 L 16 5 C 17.654 5 19 6.346 19 8 L 19 16 C 19 17.654 17.654 19 16 19 L 8 19 C 6.346 19 5 17.654 5 16 L 5 8 C 5 6.346 6.346 5 8 5 z M 17 6 A 1 1 0 0 0 16 7 A 1 1 0 0 0 17 8 A 1 1 0 0 0 18 7 A 1 1 0 0 0 17 6 z M 12 7 C 9.243 7 7 9.243 7 12 C 7 14.757 9.243 17 12 17 C 14.757 17 17 14.757 17 12 C 17 9.243 14.757 7 12 7 z M 12 9 C 13.654 9 15 10.346 15 12 C 15 13.654 13.654 15 12 15 C 10.346 15 9 13.654 9 12 C 9 10.346 10.346 9 12 9 z"></path>
</symbol>
</svg>